<svg xmlns="http://www.w3.org/2000/svg" viewBox="0 0 1534.33 412"><defs><style>.cls-1{fill:none;stroke:#000;stroke-miterlimit:10;stroke-width:12px;}</style></defs><g id="Capa_2" data-name="Capa 2"><g id="Capa_1-2" data-name="Capa 1"><path d="M1436,196.28c0,16.43.14,32.85,0,49.27-.34,32-16.72,52.5-47.85,59.44-19.37,4.32-39,4.71-58.76,3.11-12.92-1.05-25.86-1.78-38.74-3.07-18.16-1.82-36.27-4.12-54.42-6.06-14.27-1.52-28.54-3.22-42.85-4.09-11-.67-22.15-.34-33.23-.07a47.7,47.7,0,0,0-11.93,2.08c-6.7,1.93-9.93,6.36-9.88,12.62,0,6.43,3.41,11.69,10.51,12.41,9.2.92,18.63.45,27.88-.37,7.58-.67,15-2.83,22.55-4.18,10.27-1.83,19.73,4.37,21.55,14,2,10.77-4.19,20.55-14.94,22.25-20.06,3.17-40.18,3.74-60-1.73-17.16-4.74-31-13.73-36-32.1-4.8-17.65.13-42.12,21.3-50a104.14,104.14,0,0,1,24-5.71c22.51-2.62,44.91.18,67.28,2.53,25,2.63,50,5.45,75,7.64,16.32,1.43,32.71,2.43,49.09,2.59a95.24,95.24,0,0,0,34.37-6.21c10.79-4,15.49-11.8,15.66-22.57.5-31.6.67-63.21,1.05-94.81,0-3-1-4.27-4.06-4.13-4.06.18-8.14-.07-12.21.07-2.65.09-3.86-1-3.48-3.57,1.27-8.63,2.56-17.25,3.95-25.85.46-2.84,2.48-3.43,5.18-3.45,10.58-.1,10.58-.18,10.58-10.62,0-3.76.34-7.56-.08-11.26-.57-4.89,1.72-7.37,5.79-9.43,8.83-4.46,18.31-6,28-7.09,3.87-.43,5.36,1.07,5.3,4.94-.14,9.39.12,18.79-.11,28.18-.09,4,1.08,5.57,5.31,5.42,8.28-.29,16.59,0,24.88-.14,3.11-.06,4.93,1,5,4.1q.18,12.34,0,24.69c0,3-1.84,4.17-5,4.11-8.44-.18-16.9.1-25.35-.13-3.79-.11-4.87,1.33-4.84,4.92.14,14.08.06,28.17.06,42.26Z"/><path d="M62.67,153.44c0-28.17.1-56.34-.1-84.51,0-4.09,1.52-5.42,5.15-6a279.82,279.82,0,0,1,59.78-3.61c15.66.74,31.07,3.18,45.14,10.91,15.6,8.57,23.92,21.89,26.15,39.35,2,15.62.53,30.83-8,44.26-4.06,6.42-10.18,11.71-16,16.82-2.77,2.45-3.63,3.69-1.54,7,12.4,19.73,24.58,39.6,36.83,59.42,3.7,6,3.54,6.64-3.33,8.16a73.21,73.21,0,0,1-35.24-1,11.77,11.77,0,0,1-6.18-5q-15.75-25.83-31-52c-1.8-3.09-3.78-4.37-7.41-4.34-6.39,0-12.8-.37-19.17-.92-3.92-.34-5.18,1-5.14,4.92.17,16.74-.12,33.49.18,50.23.09,5.12-1.86,7.39-6.6,8.31A67.82,67.82,0,0,1,67.46,245c-3.68-.87-4.89-2.73-4.87-6.57C62.75,210.09,62.67,181.77,62.67,153.44ZM102,121.07c0,7.2.23,14.42-.1,21.6-.18,3.74,1.39,5.34,4.68,5.38,9.81.13,19.7.83,29.39-.23,5.25-.57,10.87-3.38,15.1-6.73,8.67-6.87,8.6-17,6.85-26.74-1.86-10.43-9.36-15.92-19.08-18.5C128,93,117,93.16,105.84,94.49,102.7,94.86,102,96.17,102,99,102.11,106.35,102,113.71,102,121.07Z"/><path d="M1228.45,100.3c-2.29-.86-4-1.44-5.69-2.16-17-7.26-34.52-8.48-52.31-4.4-22.47,5.16-36.83,21.57-39.74,44.5-1.79,14.06-1.78,28,2.55,41.74,6.19,19.53,19.78,30.72,39.68,34.09,17.74,3,35.15.91,52.13-5,2-.7,4.09-1.2,7.25-2.12-.56,4.66-1,8.44-1.48,12.22a3.81,3.81,0,0,1-.13.45c-6.88,24.3-7.06,23.85-29.59,29.2a105.12,105.12,0,0,1-55.56-1.51c-26.85-8.13-44.12-26.35-51.93-52.85-8.21-27.82-8-56,2.49-83.26,12.23-31.77,36.14-49.37,69.61-53.93,16.22-2.21,32.36-1.8,48.16,3.57,5.82,2,10.12,5.13,11.39,11.17,1.62,7.74,2.74,15.59,3.91,23.42C1229.4,96.82,1228.78,98.34,1228.45,100.3Z"/><path d="M1377.24,213.94c3.77,10.45-2.92,29.95-11.14,33.52-18.62,8.06-34,2.93-42.78-14.45-.5.31-1.16.49-1.42.91-6.17,9.94-15.55,14.8-26.72,16.23-12.18,1.57-24.16.58-34.79-6.35A33.2,33.2,0,0,1,1245.23,220c-1.72-11.61-1.82-23.18,4.25-33.76,7.13-12.41,18.89-17.79,32.36-20a91.34,91.34,0,0,1,37.1,1.42c2.82-12.34-4-21.43-16.28-22.37-15.49-1.2-30.21,1.34-44.08,8.44A8.16,8.16,0,0,1,1254,155c-.55-4-1.35-8-1.56-12.08a52.4,52.4,0,0,1,.73-9.33c1.28-9.85,6.29-15.85,16.49-18.19,19.17-4.38,38.35-5.57,57.55-1.25,17.38,3.91,27.25,15.6,29.62,32.89,1.37,10,1,20.26,1.14,30.41.16,8.92,0,17.85,0,26.77,0,11.56,4.87,14.86,15.88,10.91C1374.92,214.72,1375.94,214.39,1377.24,213.94Zm-56.67-11.05c0-9.52,0-9.79-9.34-11.13-6.82-1-13.77-1-20.26,2a13.77,13.77,0,0,0-8,15.85c1,5.27,5.84,8.93,12.56,9.3a65.94,65.94,0,0,0,9.84-.1C1315.77,217.79,1320.57,212.69,1320.57,202.89Z"/><path d="M1063.93,212.32c2.92,12.19-5.42,29-16.67,32.86-21.35,7.41-43,8-64.34.35-16-5.72-27.64-16.81-33.18-33-8.31-24.28-7.69-48.41,5.14-71.14,10.5-18.61,27.54-27.84,48.41-29.48a90.89,90.89,0,0,1,25.11,1.65c20.49,4.23,31.87,18,36.33,37.86A80.36,80.36,0,0,1,1064,189c-.92,3.65-2.59,5.11-6.45,5.08-22.39-.14-44.78-.08-67.17-.06-5.63,0-6.07.52-4.31,5.94,3.65,11.22,12.45,16.1,23.23,17.81a100.49,100.49,0,0,0,49-4.35c1.48-.51,3-.93,4.48-1.34C1063,212,1063.32,212.21,1063.93,212.32Zm-57-47h19.24c.16,0,.35.06.47,0,1.25-.81,3.33-1.44,3.6-2.51,2-7.89-2.47-17.24-10-20.22-13-5.14-31.61-1.66-35.88,18.34-.72,3.37.44,4.54,3.82,4.45C994.41,165.18,1000.67,165.3,1006.92,165.3Z"/><path d="M615.65,211.67c1,6.89-.48,12.79-2.5,18.71-2.59,7.59-7.08,12.82-15.06,15.3-20.42,6.35-40.93,7.37-61.28.62C515,239.05,502.29,223.17,498,200.87c-3.49-18.29-2.47-36.45,5.44-53.64,8.8-19.14,23.86-31,44.55-34.23a95.37,95.37,0,0,1,31.13.34c21.26,3.87,33.16,18.18,37.47,38.9A84.31,84.31,0,0,1,616,188c-1.05,4.79-3.29,6.18-8,6.14-21.91-.22-43.83-.11-65.74-.09-5.65,0-6.1.63-4.4,5.94,3.62,11.28,12.44,16.07,23.2,17.8a99.73,99.73,0,0,0,46.3-3.48ZM558.87,165.3H578.1c.16,0,.36.06.47,0,1.21-.84,3.27-1.52,3.49-2.59a17.79,17.79,0,0,0-12.84-21,38.71,38.71,0,0,0-11.58-.9c-10.71.56-20.12,9.6-21.59,20.2-.47,3.31.71,4.49,4.06,4.39C546.36,165.16,552.61,165.3,558.87,165.3Z"/><path d="M263.2,194.05c.9,9.68,5,16.54,13.09,20a57,57,0,0,0,17.53,4.57c15.24,1.22,30.28-.37,44.72-5.92a19.22,19.22,0,0,1,3.12-.66c3.44,12.06-4.88,29.27-16.36,33.15-22.18,7.5-44.57,8.29-66.48-.63s-32.34-26.94-35.44-49.72a89.59,89.59,0,0,1,3.72-40.7c8.6-26,31.22-42.54,58.51-42.34,8.05.06,16.41.37,24.08,2.51,19.69,5.51,30.05,19.87,33.6,39.42a85.23,85.23,0,0,1-1.11,34.9c-.95,4.09-2.88,5.53-7.1,5.49-21.91-.17-43.83-.08-65.75-.08Zm-.81-29.43c.25.17.51.49.76.49,14.2.07,28.39.17,42.59,0a4.17,4.17,0,0,0,2.94-2.63c1.43-6.95-2.69-16.08-8.79-19.24C286.81,136.5,263.14,141.22,262.39,164.62Z"/><path d="M679.22,135.32a20.18,20.18,0,0,0,1.78-2.07c8.73-15.3,22.48-21.46,39.48-21.52,4.67,0,9.45-.16,14,.73,17.67,3.47,28.17,14.8,30.65,32.74a107.69,107.69,0,0,1,1,14.46c.09,26.3,0,52.6.14,78.9,0,4.09-1.26,5.92-5.17,6.74a66.67,66.67,0,0,1-27.88-.08c-4.09-.87-5.56-2.73-5.52-7,.19-24.1.12-48.21.07-72.32,0-9.69-3.73-16.13-11.35-17.87-12.77-2.9-23.15.09-30.35,10.25a12,12,0,0,0-1.68,6.56c-.11,24.27-.18,48.53,0,72.79,0,4.58-1.3,6.86-5.91,7.75A66.7,66.7,0,0,1,650.2,245c-3.44-.81-4.94-2.42-4.93-6.11q.13-57.06,0-114.11c0-3.8,1.43-6.11,4.92-6.82q11.43-2.31,23-4.14c3.66-.58,4.4,2,4.63,5C678.2,124,678.69,129.24,679.22,135.32Z"/><path d="M883.08,229.22c-6.19,11.41-14.89,18.14-26.21,19.65-9.6,1.29-19.73,1.75-29.21.15-15.84-2.68-24.11-14.17-27.29-29.26a99.82,99.82,0,0,1-2-19.52c-.22-24.41,0-48.83-.18-73.24,0-4.15,1.32-6.77,5.2-7.58,9.73-2,19.51-3.84,29.3-5.61,3.6-.65,4,1.67,4,4.57q-.09,34,0,68.08a138.56,138.56,0,0,0,.92,15c1.11,9.76,9.07,14.92,21,13.5a41.46,41.46,0,0,0,9.95-2.54c8.77-3.38,10.72-6.44,10.72-15.7,0-24.1.12-48.21-.11-72.31,0-4.74,1.69-6.86,6.09-7.65a68.62,68.62,0,0,1,28.36.37c3.28.78,4.64,2.46,4.63,5.89q-.11,57.51,0,115c0,2.89-.9,5.14-3.73,5.71-8.06,1.62-16.16,3.09-24.3,4.22-.94.13-2.8-2.14-3.26-3.6C885.5,239.82,884.54,235.14,883.08,229.22Z"/><path d="M422.58,215c2.47-10.1,4.63-20.29,7.46-30.28,6-21,12.33-42,18.38-63,.93-3.24,2.41-5.09,5.83-5.73,10.19-1.89,20.16-1.57,30,2,3.37,1.22,4.58,2.82,3.3,6.64q-19.26,57.26-38.16,114.63c-1,3-2.72,4.43-5.64,4.73-12.25,1.27-24.48,2.94-36.76,3.66-10.9.64-10.93.17-14.4-10.29l-37-111.68c-1.82-5.48-1.56-6.33,4-8.13a53.24,53.24,0,0,1,30-1.11,7.18,7.18,0,0,1,4.45,4c9.1,30,18,60.13,26.89,90.22.42,1.44.61,3,.91,4.42Z"/><rect class="cls-1" x="6" y="6" width="1522.33" height="400" rx="49.18"/></g></g></svg>