<svg xmlns="http://www.w3.org/2000/svg" viewBox="0 0 824.83 412"><defs><style>.cls-1{fill:none;stroke:#000;stroke-miterlimit:10;stroke-width:12px;}</style></defs><g id="Capa_2" data-name="Capa 2"><g id="Capa_1-2" data-name="Capa 1"><path d="M507.66,135.12c1.49-1.23,2.61-2.16,3.74-3.07a55,55,0,0,1,36.82-12.58c20.81.54,36.69,10.29,48.9,26.58,8.55,11.41,13.33,24.47,16,38.38a136.15,136.15,0,0,1,2.13,31.92c-.73,17.1-3.7,33.74-11.68,49.12-7.86,15.17-19.19,26.73-35.61,32.37-19.25,6.6-37.53,4.65-54.31-7.47-.67-.48-1.38-.89-2.38-1.54-.07,1.21-.16,2-.17,2.86,0,17.31-.07,34.63,0,51.94,0,1.59-.47,2.23-2,2.55q-23,4.79-46,9.71c-1.34.29-1.85.05-1.75-1.32,0-.42,0-.85,0-1.28v-228c0-2.8,0-2.8,2.73-2.8,13,0,25.94,0,38.91,0,1.62,0,2.24.5,2.51,2C506.08,127.92,506.86,131.29,507.66,135.12Zm3.39,75.47h.07c0,11.87,0,23.73,0,35.6a4.24,4.24,0,0,0,1.44,3.37,29.65,29.65,0,0,0,17.54,7.94c9.86,1.2,18.22-1.62,24.72-9.36a42.11,42.11,0,0,0,7.51-13.34,72.5,72.5,0,0,0,3.78-29.2c-.58-8.7-2.28-17.08-6.38-24.81-6.13-11.57-15-18.64-29-17.09-7.1.79-13.38,3.28-18.39,8.46a4.85,4.85,0,0,0-1.24,3C511,187,511.05,198.79,511.05,210.59Z"/><path d="M763.26,249v11.41c0,8.74,0,17.49,0,26.24a2.61,2.61,0,0,1-1.6,2.7A104.42,104.42,0,0,1,728.54,300a131,131,0,0,1-25.4,1.39c-18.72-.83-36-5.89-50.5-18.33-10.89-9.33-17.95-21.19-22.31-34.72a99.81,99.81,0,0,1-4.84-25.83,183.38,183.38,0,0,1-.28-19.61c1.25-20.52,6.74-39.7,19.58-56.19,11.51-14.78,26.52-23.83,45.17-26.42,17.16-2.38,33.51-.14,48.34,9.48,11.48,7.45,19.46,17.88,25.16,30.16a110.61,110.61,0,0,1,9.06,32.85c1.47,11.46,1.14,22.93.76,34.42-.06,1.58-.88,1.57-2,1.57q-15.87,0-31.75,0H677.67c-2.73,0-2.71.07-2.29,2.83.92,6,2.87,11.6,6.8,16.36,5.17,6.27,12.12,9.3,19.88,10.76,8.11,1.53,16.27,1.23,24.45.47a103.71,103.71,0,0,0,35.79-9.84A7,7,0,0,1,763.26,249Zm-62.59-56.77c8,0,16,0,24,0,1.76,0,2.23-.6,2.1-2.22a47,47,0,0,0-2.95-14.45c-7.52-18.28-28.2-20.3-40.08-9-6.71,6.39-8.78,14.68-9.33,23.56-.1,1.6.4,2.11,2,2.09C684.54,192.22,692.6,192.26,700.67,192.26Z"/><path d="M53.59,243.29c3.67,1.75,7,3.45,10.51,5a127,127,0,0,0,33.78,10c6.54.92,13.14,1.35,19.66-.29,4.27-1.08,7.94-3.06,9.34-7.61a11.08,11.08,0,0,0-3.56-12.42c-4.22-3.69-9.35-5.73-14.48-7.73-8.54-3.32-17.18-6.37-25.59-10-9.3-4-17.73-9.39-23.91-17.69a41.41,41.41,0,0,1-8-23.37c-.45-9.86,1-19.37,5.4-28.3,6.22-12.54,16.36-20.65,29.14-25.73A78.71,78.71,0,0,1,109,119.87a132.29,132.29,0,0,1,57.92,8.06,2.07,2.07,0,0,1,1.64,2.23c0,14.5,0,29,0,43.5,0,.36,0,.72-.08,1.33a15.88,15.88,0,0,1-1.55-.6,113.22,113.22,0,0,0-36.6-11.09,67.92,67.92,0,0,0-17.9-.28,18.54,18.54,0,0,0-4.89,1.42c-6.55,2.91-8.12,10.92-2.93,15.89A24.11,24.11,0,0,0,112,185.2c7.86,3.16,15.89,5.93,23.85,8.86,7.53,2.77,14.86,6,21.52,10.51,11.89,8.12,18.88,19.21,20.4,33.63,1.26,12-.23,23.4-6.25,34-6.22,10.94-15.65,18.13-27.08,22.9a85.51,85.51,0,0,1-25.18,6c-22.17,2.06-43.4-1.72-63.95-10-1.18-.48-1.88-1-1.88-2.47.07-14.56,0-29.12,0-43.68C53.47,244.49,53.54,244,53.59,243.29Z"/><path d="M237.16,165.18v2.06c0,23.62,0,47.24.07,70.85a27.19,27.19,0,0,0,1.27,7.9c2.2,7.06,8.44,11.49,16,12a50,50,0,0,0,19.09-2.57c.45-.15.92-.24,1.63-.42.05.77.14,1.41.14,2,0,12.06,0,24.11,0,36.16a2.59,2.59,0,0,1-1.77,2.78,58.82,58.82,0,0,1-17.08,4.58,120.76,120.76,0,0,1-16.44,1.11c-16.28-.28-30.18-6-40.59-19A48.13,48.13,0,0,1,189,256.41c-.22-2.31-.34-4.64-.34-7q0-78.56,0-157.12c0-3.09-.37-2.62,2.62-3.26q21.9-4.69,43.81-9.35c.63-.13,1.28-.2,2.12-.32v2.37c0,13,0,25.94-.08,38.91,0,1.7.49,2.18,2.16,2.18,11.32-.07,22.64,0,34-.07,1.56,0,2.12.37,2.11,2q-.11,19.17,0,38.36c0,1.68-.57,2-2.12,2-11.2-.06-22.4,0-33.59,0Z"/><path d="M337.88,137.46c1.68-2.27,3-4.38,4.67-6.25,5.29-6.1,12.06-9.31,20.05-10.25a43.35,43.35,0,0,1,15.06,1.16,2,2,0,0,1,1.78,2.28q-.07,20.91,0,41.84c0,1.75-.5,2-2.17,1.61-10.3-2.21-20.15-1.27-29.14,4.73-.36.24-.7.5-1.05.75-3.94,2.86-6,6.18-5.95,11.61.3,36.58.16,73.16.16,109.75,0,4.06.15,3.38-3.48,3.39-14.62,0-29.24,0-43.86.05-1.88,0-2.38-.52-2.38-2.37q.07-85.24,0-170.49c0-2.43,0-2.44,2.42-2.44,12.79,0,25.58,0,38.36,0,1.67,0,2.33.46,2.63,2.14.66,3.72,1.57,7.4,2.38,11.09C337.49,136.42,337.66,136.8,337.88,137.46Z"/><path d="M442.06,210.44V295.6c0,2.49,0,2.49-2.47,2.49-15,0-30.1,0-45.15,0-1.82,0-2.23-.58-2.23-2.3q.06-85.33,0-170.67c0-1.85.51-2.37,2.37-2.36,15.05.07,30.1,0,45.15,0,2.34,0,2.34,0,2.34,2.45Z"/><path d="M442,56c.05.89.1,1.49.1,2.08,0,12,0,24.1,0,36.15,0,1.43-.28,2.12-1.88,2.46q-23.18,4.89-46.3,10c-1.26.28-1.67-.06-1.67-1.3,0-12.47,0-25,0-37.43,0-1.52.92-1.64,1.93-1.86l30.23-6.36Z"/><rect class="cls-1" x="6" y="6" width="812.83" height="400" rx="49.18"/></g></g></svg>